<svg width="162" height="150" viewBox="0 0 162 150" fill="none" xmlns="http://www.w3.org/2000/svg">
<path d="M54.967 110.483C54.967 110.485 54.9645 110.485 54.9629 110.485H37.2954C36.2421 110.485 35.3882 111.443 35.3882 112.625V118.064C35.3882 119.246 36.2421 120.204 37.2954 120.204H104.354C105.407 120.204 106.261 119.246 106.261 118.064V113.177C106.261 112.037 105.465 111.097 104.45 111.04L94.5364 110.482H54.971C54.9694 110.482 54.967 110.482 54.967 110.483ZM65.3301 115.544C65.3301 116.045 64.9679 116.451 64.5211 116.451H41.7205C41.2737 116.451 40.9115 116.045 40.9115 115.544C40.9115 115.042 41.2737 114.636 41.7205 114.636H64.5211C64.9679 114.636 65.3301 115.042 65.3301 115.544Z" fill="url(#paint0_linear_89_6)"/>
<path d="M56.6764 10.482C56.6764 9.30012 57.5303 8.34205 58.5837 8.34205H141.511C142.564 8.34205 143.418 9.30012 143.418 10.482V38.6737C143.418 39.8556 144.272 40.8136 145.325 40.8136H148.949C150.002 40.8136 150.856 39.8556 150.856 38.6737V2.1399C150.856 0.958067 150.002 0 148.949 0H51.1494C50.096 0 49.2422 0.958067 49.2422 2.1399V40.315C49.2422 41.4969 50.096 42.4549 51.1494 42.4549H54.7692C55.8226 42.4549 56.6764 41.4969 56.6764 40.315V10.482Z" fill="url(#paint1_linear_89_6)"/>
<path fill-rule="evenodd" clip-rule="evenodd" d="M3.81441 150C1.70777 150 0 148.084 0 145.72V94.5944C0 92.2307 1.70777 90.3146 3.81441 90.3146H27.8109C29.9175 90.3146 31.6253 92.2307 31.6253 94.5944V145.72C31.6253 148.084 29.9175 150 27.8109 150H3.81441ZM14.3899 145.378C14.3899 146.504 15.2068 147.424 16.2138 147.424C17.2195 147.424 18.039 146.504 18.0358 145.378C18.0358 144.24 17.2195 143.327 16.2138 143.327C15.21 143.327 14.3899 144.24 14.3899 145.378ZM17.2793 93.6357C17.2793 93.1606 16.9385 92.7847 16.5189 92.7847C16.0955 92.7847 15.7523 93.1606 15.7554 93.6357C15.7554 94.1065 16.0994 94.4938 16.5189 94.4938C16.9354 94.4938 17.2793 94.11 17.2793 93.6357ZM12.3333 95.6493C12.131 95.6493 11.9671 95.8333 11.9671 96.0602C11.9671 96.2871 12.131 96.4711 12.3333 96.4711H20.6919C20.8942 96.4711 21.0581 96.2871 21.0581 96.0602C21.0581 95.8333 20.8942 95.6493 20.6919 95.6493H12.3333ZM5.08588 103.349C5.0783 103.459 5.07444 103.57 5.07444 103.683V136.202C5.07444 136.314 5.0783 136.425 5.08588 136.536V140.472H25.938C26.2891 140.472 26.5737 140.153 26.5737 139.759V100.1C26.5737 99.7057 26.2891 99.3863 25.938 99.3863H5.08588V103.349Z" fill="url(#paint2_linear_89_6)"/>
<path d="M99.0361 80.2014C99.0361 80.9893 99.6054 81.628 100.308 81.628H111.53C112.232 81.628 112.802 80.9893 112.802 80.2014V79.1721C112.802 78.3842 112.232 77.7455 111.53 77.7455H109.802C109.099 77.7455 108.53 77.1068 108.53 76.3189V74.4721C108.53 73.6843 109.099 73.0455 109.802 73.0455H111.53C112.232 73.0455 112.802 72.4068 112.802 71.6189V63.7163C112.802 62.9284 112.232 62.2897 111.53 62.2897H100.308C99.6054 62.2897 99.0361 62.9284 99.0361 63.7163V80.2014Z" fill="url(#paint3_linear_89_6)"/>
<path d="M117.979 44.6212C117.277 44.6212 116.708 45.2599 116.708 46.0478V119.433C116.708 120.221 117.277 120.86 117.979 120.86H160.729C161.431 120.86 162 120.221 162 119.433V46.0478C162 45.2599 161.431 44.6212 160.729 44.6212H117.979ZM140.313 117.031C139.105 117.031 138.13 115.93 138.13 114.582C138.13 113.228 139.105 112.133 140.313 112.133C141.52 112.133 142.495 113.227 142.495 114.582C142.495 115.93 141.52 117.031 140.313 117.031ZM155.453 106.788C155.453 107.576 154.883 108.215 154.181 108.215H124.528C123.826 108.215 123.257 107.576 123.257 106.788V53.3913C123.257 52.6034 123.826 51.9647 124.528 51.9647H154.187C154.89 51.9647 155.459 52.6035 155.459 53.3914L155.453 106.788Z" fill="url(#paint4_linear_89_6)"/>
<path d="M19.1852 56.3957C19.1852 55.2139 20.0391 54.2558 21.0924 54.2558H86.5338C87.5871 54.2558 88.441 55.2139 88.441 56.3957V98.693C88.441 99.8748 87.5871 100.833 86.5338 100.833H37.2954C36.2421 100.833 35.3882 101.791 35.3882 102.973V105.546C35.3882 106.727 36.2421 107.686 37.2954 107.686H92.6419C93.6952 107.686 94.5491 106.727 94.5491 105.546V49.5494C94.5491 48.3676 93.6952 47.4095 92.6419 47.4095H14.9881C13.9348 47.4095 13.0809 48.3676 13.0809 49.5494V84.1538C13.0809 85.3356 13.9348 86.2937 14.9881 86.2937H17.278C18.3313 86.2937 19.1852 85.3356 19.1852 84.1538V56.3957Z" fill="url(#paint5_linear_89_6)"/>
<defs>
<linearGradient id="paint0_linear_89_6" x1="23.2119" y1="131.672" x2="126.011" y2="22.213" gradientUnits="userSpaceOnUse">
<stop stop-color="#0151B2"/>
<stop offset="0.495" stop-color="#01D3DF"/>
<stop offset="1" stop-color="#0171EF"/>
</linearGradient>
<linearGradient id="paint1_linear_89_6" x1="23.2119" y1="131.672" x2="126.011" y2="22.213" gradientUnits="userSpaceOnUse">
<stop stop-color="#0151B2"/>
<stop offset="0.495" stop-color="#01D3DF"/>
<stop offset="1" stop-color="#0171EF"/>
</linearGradient>
<linearGradient id="paint2_linear_89_6" x1="23.2119" y1="131.672" x2="126.011" y2="22.213" gradientUnits="userSpaceOnUse">
<stop stop-color="#0151B2"/>
<stop offset="0.495" stop-color="#01D3DF"/>
<stop offset="1" stop-color="#0171EF"/>
</linearGradient>
<linearGradient id="paint3_linear_89_6" x1="23.2119" y1="131.672" x2="126.011" y2="22.213" gradientUnits="userSpaceOnUse">
<stop stop-color="#0151B2"/>
<stop offset="0.495" stop-color="#01D3DF"/>
<stop offset="1" stop-color="#0171EF"/>
</linearGradient>
<linearGradient id="paint4_linear_89_6" x1="23.2119" y1="131.672" x2="126.011" y2="22.213" gradientUnits="userSpaceOnUse">
<stop stop-color="#0151B2"/>
<stop offset="0.495" stop-color="#01D3DF"/>
<stop offset="1" stop-color="#0171EF"/>
</linearGradient>
<linearGradient id="paint5_linear_89_6" x1="23.2119" y1="131.672" x2="126.011" y2="22.213" gradientUnits="userSpaceOnUse">
<stop stop-color="#0151B2"/>
<stop offset="0.495" stop-color="#01D3DF"/>
<stop offset="1" stop-color="#0171EF"/>
</linearGradient>
</defs>
</svg>
