<svg width="131" height="105" viewBox="0 0 131 105" fill="none" xmlns="http://www.w3.org/2000/svg">
<path d="M123.179 31.12L100.506 8.8338C98.4727 6.83271 95.3696 6.27166 92.7841 7.43816C91.0835 8.20544 52.411 25.6538 48.8075 27.2796C46.2223 28.446 44.71 31.0892 45.0444 33.8564L48.7545 64.6993C49.6706 72.2947 58.016 76.9028 65.1295 73.6934C69.5728 71.6886 72.0626 67.1905 71.5053 62.5518L70.9057 57.5765C70.6944 55.8229 71.6526 54.1484 73.2902 53.4096L73.6574 53.2439C75.5221 54.7041 78.0696 55.0438 80.2627 54.0543C82.455 53.0652 83.7935 50.9717 83.7903 48.6721L87.965 46.7886C89.8294 48.2489 92.3761 48.589 94.568 47.6C96.7615 46.6104 98.1007 44.5166 98.0979 42.2168L98.4649 42.0512C100.102 41.3124 102.069 41.6675 103.357 42.9349L107.014 46.5315C110.462 49.9192 115.719 50.8685 120.096 48.8938C127.113 45.7275 128.825 36.6723 123.179 31.12ZM61.3188 24.3007L82.4361 14.7729L85.4014 20.7444L64.2841 30.2721L61.3188 24.3007ZM79.1811 51.8763C77.6824 52.5525 75.9097 52.2045 74.7687 51.0098C74.509 50.7383 74.2914 50.4276 74.1217 50.0859C73.21 48.2498 73.9966 46.0665 75.8752 45.2189C77.7527 44.3718 80.0217 45.1765 80.9335 47.0126C81.8385 48.8346 81.0901 51.0151 79.1811 51.8763ZM93.4865 45.422C91.5911 46.2772 89.3413 45.4671 88.4293 43.6306C87.5175 41.7945 88.303 39.6117 90.1806 38.7646C92.0592 37.917 94.3293 38.7212 95.241 40.5573C96.146 42.3796 95.3974 44.5599 93.4865 45.422ZM119.014 46.7156C115.584 48.2634 111.464 47.5192 108.762 44.8647L105.105 41.2685C103.122 39.3186 100.124 38.7364 97.5805 39.788C96.1625 36.598 92.2973 35.1439 89.0991 36.5869C85.9257 38.0187 84.6238 41.7683 86.3204 44.8647L83.2717 46.2402C81.8498 43.0484 77.9864 41.6007 74.794 43.0411C71.5952 44.4843 70.3257 48.2559 72.0147 51.3228C69.5491 52.5312 68.1208 55.1107 68.4457 57.8086L69.0453 62.7836C69.4838 66.4348 67.5171 69.9502 64.0482 71.5153C58.4691 74.0325 51.9321 70.4155 51.2149 64.4667L47.5046 33.6242C47.2928 31.8711 48.251 30.1966 49.889 29.4576L59.0905 25.306L62.5965 32.3663C62.8951 32.9676 63.6361 33.2301 64.2514 32.9525L87.5969 22.4195C88.2121 22.1419 88.4689 21.4292 88.1703 20.8279L84.6644 13.7676L93.8659 9.61604C95.5039 8.87701 97.47 9.23214 98.7585 10.5L121.431 32.7864C125.866 37.1482 124.505 44.2384 119.014 46.7156Z" fill="#727272"/>
<path d="M97.6677 23.349C99.3049 22.6107 99.9904 20.7089 99.1958 19.1096C98.4013 17.5103 96.4229 16.8098 94.7857 17.5481C93.1486 18.2864 92.4631 20.1883 93.2576 21.7875C94.0522 23.3868 96.0306 24.0873 97.6677 23.349ZM95.8643 19.7191C96.2761 19.5333 96.7734 19.7096 96.9732 20.1117C97.1731 20.514 97.0006 20.992 96.5889 21.1776C96.1773 21.3633 95.6798 21.1871 95.4801 20.785C95.2803 20.3829 95.4527 19.9047 95.8643 19.7191Z" fill="#3683FF"/>
<path d="M99.6032 27.3318C97.966 28.0701 97.2805 29.972 98.075 31.5712C98.8696 33.1705 100.848 33.871 102.485 33.1327C104.122 32.3944 104.808 30.4926 104.013 28.8933C103.219 27.294 101.24 26.5936 99.6032 27.3318ZM101.407 30.9618C100.995 31.1475 100.497 30.9713 100.298 30.5692C100.098 30.1669 100.27 29.6888 100.682 29.5032C101.094 29.3176 101.591 29.4937 101.791 29.8958C101.991 30.2978 101.818 30.7761 101.407 30.9618Z" fill="#3683FF"/>
<path d="M96.5158 26.3169C95.7212 24.7176 93.7428 24.0171 92.1057 24.7554C90.4685 25.4937 89.783 27.3955 90.5776 28.9948C91.3721 30.594 93.3505 31.2945 94.9876 30.5563C96.6247 29.8183 97.3104 27.9163 96.5158 26.3169ZM93.9089 28.3854C93.497 28.5711 92.9998 28.3949 92.8 27.9928C92.6002 27.5907 92.7726 27.1125 93.1842 26.9268C93.5958 26.7412 94.0933 26.9174 94.2931 27.3195C94.4931 27.7215 94.3207 28.1997 93.9089 28.3854Z" fill="#3683FF"/>
<path d="M102.284 20.1242C100.646 20.8625 99.9609 22.7644 100.755 24.3636C101.55 25.9629 103.528 26.6634 105.166 25.9251C106.803 25.1868 107.488 23.285 106.694 21.6857C105.899 20.0865 103.921 19.386 102.284 20.1242ZM104.087 23.7542C103.675 23.9399 103.178 23.7637 102.978 23.3616C102.778 22.9595 102.951 22.4812 103.362 22.2956C103.774 22.11 104.271 22.2861 104.471 22.6882C104.671 23.0904 104.499 23.5686 104.087 23.7542Z" fill="#3683FF"/>
<path d="M65.0376 37.0996L61.101 38.8749L59.1905 35.0294C58.8927 34.4299 58.1535 34.1682 57.5399 34.4449L53.824 36.1206C53.2103 36.3974 52.9542 37.1079 53.252 37.7074L55.1625 41.5529L51.226 43.3282C50.6123 43.6049 50.3562 44.3154 50.654 44.9149L52.4574 48.5448C52.7552 49.1443 53.4944 49.406 54.108 49.1293L58.0446 47.354L59.9551 51.1995C60.253 51.799 60.9921 52.0607 61.6058 51.784L65.3216 50.1082C65.9353 49.8315 66.1914 49.121 65.8936 48.5215L63.9831 44.676L67.9197 42.9007C68.5333 42.624 68.7894 41.9135 68.4916 41.314L66.6882 37.6841C66.3904 37.0846 65.6512 36.8229 65.0376 37.0996ZM65.7297 41.2307L61.7931 43.006C61.1795 43.2827 60.9234 43.9933 61.2212 44.5927L63.1317 48.4382L61.6384 49.1117L59.7279 45.2661C59.43 44.6667 58.6909 44.405 58.0772 44.6817L54.1407 46.457L53.4159 44.9982L57.3525 43.2229C57.9661 42.9462 58.2223 42.2357 57.9244 41.6362L56.0139 37.7907L57.5072 37.1172L59.4178 40.9628C59.7156 41.5622 60.4547 41.8239 61.0684 41.5472L65.005 39.7719L65.7297 41.2307Z" fill="#3683FF"/>
<path d="M102.972 62.8833C103.067 62.8743 125.048 60.8194 125.048 78.6521C125.048 96.5232 110.331 96.5235 110.33 96.5235H15.7175C15.7175 96.5235 1.00008 96.5235 1 78.6521C0.999922 60.8203 22.9785 62.8741 23.076 62.8833C23.0785 62.8835 23.0767 62.8813 23.0772 62.8788C27.2852 41.8579 56.7166 35.5528 63.0248 59.7276C63.025 59.7281 63.0257 59.7281 63.0258 59.7276C69.3338 35.5525 97.7117 39.7558 102.971 62.8789C102.971 62.8814 102.969 62.8835 102.972 62.8833Z" fill="#D9D9D9" stroke="white" stroke-width="2"/>
<path d="M33.8 84.9282V66.6882L38.68 61.8081H54.28V67.6482H40.52V83.9682H50.04V78.2082H44.2V72.8882H55.96V89.8082H38.68L33.8 84.9282ZM93.1422 67.6482H78.2622V72.2082L93.1422 73.5282V84.9282L88.2622 89.8082H71.7022V83.9682H86.4222V78.3282L71.5422 77.0482V61.8081H93.1422V67.6482Z" fill="#BF9B37"/>
</svg>
