<svg width="132" height="147" viewBox="0 0 132 147" fill="none" xmlns="http://www.w3.org/2000/svg">
<path d="M122.571 76.0598H108.429C107.178 76.0598 105.979 76.5581 105.095 77.445C104.211 78.3319 103.714 79.5348 103.714 80.7891C103.714 82.0434 104.211 83.2464 105.095 84.1333C105.979 85.0202 107.178 85.5185 108.429 85.5185H122.571V137.541H9.42857V85.5185H23.5714C24.8217 85.5185 26.0208 85.0202 26.9049 84.1333C27.789 83.2464 28.2857 82.0434 28.2857 80.7891C28.2857 79.5348 27.789 78.3319 26.9049 77.445C26.0208 76.5581 24.8217 76.0598 23.5714 76.0598H9.42857C6.92872 76.0623 4.53198 77.0596 2.76432 78.8329C0.996662 80.6063 0.0024961 83.0107 0 85.5185V137.541C0.0024961 140.049 0.996662 142.454 2.76432 144.227C4.53198 146 6.92872 146.997 9.42857 147H122.571C125.071 146.997 127.468 146 129.236 144.227C131.003 142.454 131.997 140.049 132 137.541V85.5185C131.997 83.0107 131.003 80.6063 129.236 78.8329C127.468 77.0596 125.071 76.0623 122.571 76.0598Z" fill="url(#paint0_linear_89_7)"/>
<path d="M66 14.5783C64.7497 14.5783 63.5506 15.0766 62.6665 15.9635C61.7824 16.8504 61.2857 18.0533 61.2857 19.3076V111.936L41.0473 91.6335C40.1582 90.772 38.9674 90.2954 37.7313 90.3061C36.4952 90.3169 35.3128 90.8143 34.4387 91.6911C33.5647 92.568 33.0689 93.7542 33.0581 94.9942C33.0474 96.2342 33.5226 97.4289 34.3813 98.3208L62.667 126.697C62.7099 126.74 62.7684 126.753 62.8127 126.794C63.2142 127.185 63.6826 127.499 64.1954 127.722L64.21 127.725C65.0698 128.08 66.015 128.172 66.9266 127.989C67.8383 127.806 68.6756 127.356 69.333 126.697L97.6188 98.3208C98.4775 97.4289 98.9527 96.2342 98.9419 94.9942C98.9312 93.7542 98.4354 92.568 97.5613 91.6911C96.6873 90.8143 95.5049 90.3169 94.2688 90.3061C93.0327 90.2954 91.8419 90.772 90.9527 91.6335L70.7143 111.936V19.3076C70.7143 18.0533 70.2176 16.8504 69.3335 15.9635C68.4494 15.0766 67.2503 14.5783 66 14.5783Z" fill="url(#paint1_linear_89_7)"/>
<path d="M19.3923 68.5379V0.73796H28.6794L37.8745 36.0677L38.702 39.204H39.2537V0.73796H48.3569V68.5379H39.9894L29.8747 33.2081L29.0472 30.0718H28.4955V68.5379H19.3923Z" fill="url(#paint2_linear_89_7)"/>
<path d="M96.8266 69.2758C94.068 69.2758 91.6926 68.6301 89.7004 67.3387C87.7388 66.0473 86.2216 64.2946 85.1488 62.0807C84.1067 59.8669 83.5856 57.3763 83.5856 54.6089V14.6669C83.5856 11.8688 84.1067 9.37822 85.1488 7.19509C86.2216 4.98122 87.7388 3.22857 89.7004 1.93714C91.6926 0.645712 94.068 0 96.8266 0C99.5851 0 101.945 0.645712 103.907 1.93714C105.899 3.22857 107.416 4.98122 108.458 7.19509C109.531 9.40897 110.068 11.8996 110.068 14.6669V54.6089C110.068 57.3763 109.531 59.8669 108.458 62.0807C107.416 64.2946 105.899 66.0473 103.907 67.3387C101.945 68.6301 99.5851 69.2758 96.8266 69.2758ZM96.8266 59.5901C98.0526 59.5901 98.9108 59.0828 99.4012 58.0681C99.8916 57.0227 100.137 55.8696 100.137 54.6089V14.6669C100.137 13.4062 99.8763 12.2686 99.3552 11.2539C98.8342 10.2084 97.9913 9.6857 96.8266 9.6857C95.6925 9.6857 94.8496 10.2084 94.2979 11.2539C93.7769 12.2686 93.5163 13.4062 93.5163 14.6669V54.6089C93.5163 55.8696 93.7769 57.0227 94.2979 58.0681C94.819 59.0828 95.6619 59.5901 96.8266 59.5901Z" fill="url(#paint3_linear_89_7)"/>
<defs>
<linearGradient id="paint0_linear_89_7" x1="68.5143" y1="0.0749515" x2="65.9839" y2="147" gradientUnits="userSpaceOnUse">
<stop stop-color="#0151B2"/>
<stop offset="0.321635" stop-color="#01CFDF"/>
<stop offset="1" stop-color="#0171EF"/>
</linearGradient>
<linearGradient id="paint1_linear_89_7" x1="68.5143" y1="0.0749515" x2="65.9839" y2="147" gradientUnits="userSpaceOnUse">
<stop stop-color="#0151B2"/>
<stop offset="0.321635" stop-color="#01CFDF"/>
<stop offset="1" stop-color="#0171EF"/>
</linearGradient>
<linearGradient id="paint2_linear_89_7" x1="68.5143" y1="0.0749515" x2="65.9839" y2="147" gradientUnits="userSpaceOnUse">
<stop stop-color="#0151B2"/>
<stop offset="0.321635" stop-color="#01CFDF"/>
<stop offset="1" stop-color="#0171EF"/>
</linearGradient>
<linearGradient id="paint3_linear_89_7" x1="68.5143" y1="0.0749515" x2="65.9839" y2="147" gradientUnits="userSpaceOnUse">
<stop stop-color="#0151B2"/>
<stop offset="0.321635" stop-color="#01CFDF"/>
<stop offset="1" stop-color="#0171EF"/>
</linearGradient>
</defs>
</svg>
