<svg width="161" height="150" viewBox="0 0 161 150" fill="none" xmlns="http://www.w3.org/2000/svg">
<path d="M148.016 15.5172C149.45 15.5172 150.613 14.3594 150.613 12.931C150.613 11.5027 149.45 10.3448 148.016 10.3448C146.582 10.3448 145.419 11.5027 145.419 12.931C145.419 14.3594 146.582 15.5172 148.016 15.5172Z" fill="url(#paint0_linear_89_5)"/>
<path d="M20.7742 59.4828H25.9677C26.6564 59.4828 27.3169 59.2103 27.8039 58.7253C28.2909 58.2403 28.5645 57.5825 28.5645 56.8966C28.5645 56.2106 28.2909 55.5528 27.8039 55.0678C27.3169 54.5828 26.6564 54.3103 25.9677 54.3103H20.7742C20.0855 54.3103 19.425 54.5828 18.938 55.0678C18.451 55.5528 18.1774 56.2106 18.1774 56.8966C18.1774 57.5825 18.451 58.2403 18.938 58.7253C19.425 59.2103 20.0855 59.4828 20.7742 59.4828Z" fill="url(#paint1_linear_89_5)"/>
<path d="M36.3548 59.4828H49.3387C50.0274 59.4828 50.6879 59.2103 51.1749 58.7253C51.6619 58.2403 51.9355 57.5825 51.9355 56.8966C51.9355 56.2106 51.6619 55.5528 51.1749 55.0678C50.6879 54.5828 50.0274 54.3103 49.3387 54.3103H36.3548C35.6661 54.3103 35.0056 54.5828 34.5186 55.0678C34.0317 55.5528 33.7581 56.2106 33.7581 56.8966C33.7581 57.5825 34.0317 58.2403 34.5186 58.7253C35.0056 59.2103 35.6661 59.4828 36.3548 59.4828Z" fill="url(#paint2_linear_89_5)"/>
<path d="M49.3387 62.069H44.1452C43.4565 62.069 42.796 62.3414 42.309 62.8264C41.822 63.3115 41.5484 63.9693 41.5484 64.6552C41.5484 65.3411 41.822 65.9989 42.309 66.4839C42.796 66.9689 43.4565 67.2414 44.1452 67.2414H49.3387C50.0274 67.2414 50.6879 66.9689 51.1749 66.4839C51.6619 65.9989 51.9355 65.3411 51.9355 64.6552C51.9355 63.9693 51.6619 63.3115 51.1749 62.8264C50.6879 62.3414 50.0274 62.069 49.3387 62.069Z" fill="url(#paint3_linear_89_5)"/>
<path d="M116.855 82.7586H101.274C100.585 82.7586 99.925 83.0311 99.438 83.5161C98.951 84.0011 98.6774 84.6589 98.6774 85.3448V100.862C98.6774 101.548 98.951 102.206 99.438 102.691C99.925 103.176 100.585 103.448 101.274 103.448H116.855C117.544 103.448 118.204 103.176 118.691 102.691C119.178 102.206 119.452 101.548 119.452 100.862V85.3448C119.452 84.6589 119.178 84.0011 118.691 83.5161C118.204 83.0311 117.544 82.7586 116.855 82.7586ZM114.258 98.2759H103.871V87.931H114.258V98.2759Z" fill="url(#paint4_linear_89_5)"/>
<path d="M31.1613 33.6207C31.85 33.6207 32.5105 33.3482 32.9975 32.8632C33.4845 32.3782 33.7581 31.7204 33.7581 31.0345V20.6897C33.7581 20.0037 33.4845 19.3459 32.9975 18.8609C32.5105 18.3759 31.85 18.1034 31.1613 18.1034H10.3871C9.69839 18.1034 9.03789 18.3759 8.5509 18.8609C8.06391 19.3459 7.79032 20.0037 7.79032 20.6897V31.0345C7.79032 31.7204 8.06391 32.3782 8.5509 32.8632C9.03789 33.3482 9.69839 33.6207 10.3871 33.6207H31.1613ZM12.9839 23.2759H28.5645V28.4483H12.9839V23.2759Z" fill="url(#paint5_linear_89_5)"/>
<path d="M148.016 129.31C149.45 129.31 150.613 128.152 150.613 126.724C150.613 125.296 149.45 124.138 148.016 124.138C146.582 124.138 145.419 125.296 145.419 126.724C145.419 128.152 146.582 129.31 148.016 129.31Z" fill="url(#paint6_linear_89_5)"/>
<path d="M158.403 0H9.08871C6.67905 0.00265258 4.36885 0.957165 2.66496 2.65412C0.961077 4.35107 0.00266342 6.65187 0 9.05172V130.603C0.00151306 132.316 0.490178 133.992 1.40937 135.439C2.32855 136.886 3.64063 138.044 5.19355 138.779V147.414C5.19355 148.1 5.46714 148.758 5.95413 149.243C6.44112 149.728 7.10161 150 7.79032 150H33.7581C34.4468 150 35.1073 149.728 35.5943 149.243C36.0812 148.758 36.3548 148.1 36.3548 147.414V139.655H124.645V147.414C124.645 148.1 124.919 148.758 125.406 149.243C125.893 149.728 126.553 150 127.242 150H153.21C153.898 150 154.559 149.728 155.046 149.243C155.533 148.758 155.806 148.1 155.806 147.414V139.655H158.403C159.092 139.655 159.752 139.383 160.239 138.898C160.726 138.413 161 137.755 161 137.069V2.58621C161 1.9003 160.726 1.24249 160.239 0.757482C159.752 0.272474 159.092 0 158.403 0ZM144.121 25.8621H145.419V28.4483H49.3387V15.5172H135.032V16.8103C135.035 19.2102 135.993 21.511 137.697 23.208C139.401 24.9049 141.711 25.8594 144.121 25.8621ZM46.7419 33.6207H145.419V36.2069H41.5484V15.5172H44.1452V31.0345C44.1452 31.7204 44.4187 32.3782 44.9057 32.8632C45.3927 33.3482 46.0532 33.6207 46.7419 33.6207ZM5.19355 9.05172C5.19441 8.02313 5.60507 7.03691 6.33536 6.30958C7.06566 5.58226 8.05591 5.17327 9.08871 5.17241H135.032V10.3448H5.19355V9.05172ZM31.1613 144.828H10.3871V139.655H31.1613V144.828ZM62.3226 134.483H9.08871C8.05591 134.482 7.06566 134.073 6.33536 133.346C5.60507 132.618 5.19441 131.632 5.19355 130.603V106.034H62.3226V134.483ZM70.1129 134.483H67.5161V103.448C67.5161 102.762 67.2425 102.105 66.7556 101.62C66.2686 101.135 65.6081 100.862 64.9193 100.862H5.19355V98.2759H70.1129V134.483ZM75.3064 134.483V95.6897C75.3064 95.0038 75.0329 94.3459 74.5459 93.8609C74.0589 93.3759 73.3984 93.1034 72.7097 93.1034H5.19355V15.5172H36.3548V38.7931C36.3548 39.479 36.6284 40.1368 37.1154 40.6218C37.6024 41.1068 38.2629 41.3793 38.9516 41.3793H145.419V113.793H144.121C141.711 113.796 139.401 114.75 137.697 116.447C135.993 118.144 135.035 120.445 135.032 122.845V134.483H75.3064ZM150.613 144.828H129.839V139.655H150.613V144.828ZM155.806 134.483H140.226V122.845C140.227 121.816 140.637 120.83 141.368 120.103C142.098 119.375 143.088 118.966 144.121 118.966H155.806V134.483ZM155.806 113.793H150.613V25.8621H155.806V113.793ZM155.806 20.6897H144.121C143.088 20.6888 142.098 20.2798 141.368 19.5525C140.637 18.8252 140.227 17.8389 140.226 16.8103V5.17241H155.806V20.6897Z" fill="url(#paint7_linear_89_5)"/>
<path d="M129.839 49.1379H103.871C103.871 48.452 103.597 47.7942 103.11 47.3092C102.623 46.8242 101.963 46.5517 101.274 46.5517H88.2903C87.6016 46.5517 86.9411 46.8242 86.4541 47.3092C85.9671 47.7942 85.6935 48.452 85.6935 49.1379H59.7258C59.7258 48.452 59.4522 47.7942 58.9652 47.3092C58.4782 46.8242 57.8177 46.5517 57.129 46.5517H15.5806V43.9655C15.5806 43.2796 15.3071 42.6218 14.8201 42.1368C14.3331 41.6518 13.6726 41.3793 12.9839 41.3793C12.2952 41.3793 11.6347 41.6518 11.1477 42.1368C10.6607 42.6218 10.3871 43.2796 10.3871 43.9655V80.1724C10.3871 80.8583 10.6607 81.5161 11.1477 82.0011C11.6347 82.4861 12.2952 82.7586 12.9839 82.7586C13.6726 82.7586 14.3331 82.4861 14.8201 82.0011C15.3071 81.5161 15.5806 80.8583 15.5806 80.1724V77.5862H18.1774V82.7586C18.1774 83.4445 18.451 84.1023 18.938 84.5873C19.425 85.0724 20.0855 85.3448 20.7742 85.3448H31.1613C31.85 85.3448 32.5105 85.0724 32.9975 84.5873C33.4845 84.1023 33.7581 83.4445 33.7581 82.7586V77.5862H36.3548V82.7586C36.3548 83.4445 36.6284 84.1023 37.1154 84.5873C37.6024 85.0724 38.2629 85.3448 38.9516 85.3448H49.3387C50.0274 85.3448 50.6879 85.0724 51.1749 84.5873C51.6619 84.1023 51.9355 83.4445 51.9355 82.7586V77.5862H57.129C57.8177 77.5862 58.4782 77.3137 58.9652 76.8287C59.4522 76.3437 59.7258 75.6859 59.7258 75V54.3103H85.6935V56.8966C85.6935 57.5825 85.9671 58.2403 86.4541 58.7253C86.9411 59.2103 87.6016 59.4828 88.2903 59.4828H101.274C101.963 59.4828 102.623 59.2103 103.11 58.7253C103.597 58.2403 103.871 57.5825 103.871 56.8966V54.3103H127.242V62.069H119.452C118.763 62.069 118.102 62.3414 117.615 62.8264C117.128 63.3115 116.855 63.9693 116.855 64.6552V69.8276H88.2903C87.6016 69.8276 86.9411 70.1001 86.4541 70.5851C85.9671 71.0701 85.6935 71.7279 85.6935 72.4138V113.793C85.6935 114.479 85.9671 115.137 86.4541 115.622C86.9411 116.107 87.6016 116.379 88.2903 116.379H129.839C130.527 116.379 131.188 116.107 131.675 115.622C132.162 115.137 132.435 114.479 132.435 113.793V51.7241C132.435 51.0382 132.162 50.3804 131.675 49.8954C131.188 49.4104 130.527 49.1379 129.839 49.1379ZM28.5645 80.1724H23.371V77.5862H28.5645V80.1724ZM46.7419 80.1724H41.5484V77.5862H46.7419V80.1724ZM54.5323 72.4138H15.5806V51.7241H54.5323V72.4138ZM98.6774 54.3103H90.8871V51.7241H98.6774V54.3103ZM122.048 67.2414H127.242V69.8276H122.048V67.2414ZM127.242 111.207H90.8871V75H127.242V111.207Z" fill="url(#paint8_linear_89_5)"/>
<path d="M129.839 118.966H80.5C79.8113 118.966 79.1508 119.238 78.6638 119.723C78.1768 120.208 77.9032 120.866 77.9032 121.552V129.31C77.9032 129.996 78.1768 130.654 78.6638 131.139C79.1508 131.624 79.8113 131.897 80.5 131.897H129.839C130.527 131.897 131.188 131.624 131.675 131.139C132.162 130.654 132.435 129.996 132.435 129.31V121.552C132.435 120.866 132.162 120.208 131.675 119.723C131.188 119.238 130.527 118.966 129.839 118.966ZM127.242 126.724H83.0968V124.138H127.242V126.724Z" fill="url(#paint9_linear_89_5)"/>
<defs>
<linearGradient id="paint0_linear_89_5" x1="3.89517" y1="137.716" x2="160.44" y2="-0.633174" gradientUnits="userSpaceOnUse">
<stop stop-color="#0051B2"/>
<stop offset="0.46" stop-color="#00D7DF"/>
<stop offset="1" stop-color="#006DF0"/>
</linearGradient>
<linearGradient id="paint1_linear_89_5" x1="3.89517" y1="137.716" x2="160.44" y2="-0.633174" gradientUnits="userSpaceOnUse">
<stop stop-color="#0051B2"/>
<stop offset="0.46" stop-color="#00D7DF"/>
<stop offset="1" stop-color="#006DF0"/>
</linearGradient>
<linearGradient id="paint2_linear_89_5" x1="3.89517" y1="137.716" x2="160.44" y2="-0.633174" gradientUnits="userSpaceOnUse">
<stop stop-color="#0051B2"/>
<stop offset="0.46" stop-color="#00D7DF"/>
<stop offset="1" stop-color="#006DF0"/>
</linearGradient>
<linearGradient id="paint3_linear_89_5" x1="3.89517" y1="137.716" x2="160.44" y2="-0.633174" gradientUnits="userSpaceOnUse">
<stop stop-color="#0051B2"/>
<stop offset="0.46" stop-color="#00D7DF"/>
<stop offset="1" stop-color="#006DF0"/>
</linearGradient>
<linearGradient id="paint4_linear_89_5" x1="3.89517" y1="137.716" x2="160.44" y2="-0.633174" gradientUnits="userSpaceOnUse">
<stop stop-color="#0051B2"/>
<stop offset="0.46" stop-color="#00D7DF"/>
<stop offset="1" stop-color="#006DF0"/>
</linearGradient>
<linearGradient id="paint5_linear_89_5" x1="3.89517" y1="137.716" x2="160.44" y2="-0.633174" gradientUnits="userSpaceOnUse">
<stop stop-color="#0051B2"/>
<stop offset="0.46" stop-color="#00D7DF"/>
<stop offset="1" stop-color="#006DF0"/>
</linearGradient>
<linearGradient id="paint6_linear_89_5" x1="3.89517" y1="137.716" x2="160.44" y2="-0.633174" gradientUnits="userSpaceOnUse">
<stop stop-color="#0051B2"/>
<stop offset="0.46" stop-color="#00D7DF"/>
<stop offset="1" stop-color="#006DF0"/>
</linearGradient>
<linearGradient id="paint7_linear_89_5" x1="3.89517" y1="137.716" x2="160.44" y2="-0.633174" gradientUnits="userSpaceOnUse">
<stop stop-color="#0051B2"/>
<stop offset="0.46" stop-color="#00D7DF"/>
<stop offset="1" stop-color="#006DF0"/>
</linearGradient>
<linearGradient id="paint8_linear_89_5" x1="3.89517" y1="137.716" x2="160.44" y2="-0.633174" gradientUnits="userSpaceOnUse">
<stop stop-color="#0051B2"/>
<stop offset="0.46" stop-color="#00D7DF"/>
<stop offset="1" stop-color="#006DF0"/>
</linearGradient>
<linearGradient id="paint9_linear_89_5" x1="3.89517" y1="137.716" x2="160.44" y2="-0.633174" gradientUnits="userSpaceOnUse">
<stop stop-color="#0051B2"/>
<stop offset="0.46" stop-color="#00D7DF"/>
<stop offset="1" stop-color="#006DF0"/>
</linearGradient>
</defs>
</svg>
