<svg width="774" height="70" viewBox="0 0 774 70" fill="none" xmlns="http://www.w3.org/2000/svg">
<path d="M22 62V54H14V46H6V22H14V14H22V6H54V14H62V22H46V14H30V22H22V46H30V54H46V46H62V54H54V62H22ZM78 62V54H94V14H86V6H110V54H126V62H78ZM142 62V54H134V30H142V22H182V30H190V54H182V62H142ZM150 54H174V30H150V54ZM206 62V54H198V22H214V54H238V22H254V62H206ZM270 62V54H262V30H270V22H302V6H318V62H270ZM278 54H302V30H278V54ZM406 62V54H398V46H390V22H398V14H406V6H446V14H414V22H406V46H414V54H430V38H422V30H446V62H406ZM518 62V6H574V14H534V30H566V38H534V62H518ZM606 14V6H622V14H606ZM590 62V54H606V30H598V22H622V54H638V62H590ZM670 62V54H662V46H654V22H670V46H686V22H702V46H694V54H686V62H670ZM718 62V54H710V30H718V22H758V30H766V46H726V54H758V62H718ZM726 38H750V30H726V38Z" fill="#BF9B37"/>
<path d="M406 62V54H398V46H390V22H398V14H406V6H446V14H414V22H406V46H414V54H430V38H422V30H446V62H406Z" fill="#3683FF"/>
<mask id="path-3-outside-1_11_40" maskUnits="userSpaceOnUse" x="0" y="0" width="762" height="58" fill="black">
<rect fill="white" width="762" height="58"/>
<path d="M17 57V49H9V41H1V17H9V9H17V1H49V9H57V17H41V9H25V17H17V41H25V49H41V41H57V49H49V57H17ZM73 57V49H89V9H81V1H105V49H121V57H73ZM137 57V49H129V25H137V17H177V25H185V49H177V57H137ZM145 49H169V25H145V49ZM201 57V49H193V17H209V49H233V17H249V57H201ZM265 57V49H257V25H265V17H297V1H313V57H265ZM273 49H297V25H273V49ZM401 57V49H393V41H385V17H393V9H401V1H441V9H409V17H401V41H409V49H425V33H417V25H441V57H401ZM513 57V1H569V9H529V25H561V33H529V57H513ZM601 9V1H617V9H601ZM585 57V49H601V25H593V17H617V49H633V57H585ZM665 57V49H657V41H649V17H665V41H681V17H697V41H689V49H681V57H665ZM713 57V49H705V25H713V17H753V25H761V41H721V49H753V57H713ZM721 33H745V25H721V33Z"/>
</mask>
<path d="M17 57V49H9V41H1V17H9V9H17V1H49V9H57V17H41V9H25V17H17V41H25V49H41V41H57V49H49V57H17ZM73 57V49H89V9H81V1H105V49H121V57H73ZM137 57V49H129V25H137V17H177V25H185V49H177V57H137ZM145 49H169V25H145V49ZM201 57V49H193V17H209V49H233V17H249V57H201ZM265 57V49H257V25H265V17H297V1H313V57H265ZM273 49H297V25H273V49ZM401 57V49H393V41H385V17H393V9H401V1H441V9H409V17H401V41H409V49H425V33H417V25H441V57H401ZM513 57V1H569V9H529V25H561V33H529V57H513ZM601 9V1H617V9H601ZM585 57V49H601V25H593V17H617V49H633V57H585ZM665 57V49H657V41H649V17H665V41H681V17H697V41H689V49H681V57H665ZM713 57V49H705V25H713V17H753V25H761V41H721V49H753V57H713ZM721 33H745V25H721V33Z" fill="white"/>
<path d="M17 57H16V58H17V57ZM17 49H18V48H17V49ZM9 49H8V50H9V49ZM9 41H10V40H9V41ZM1 41H0V42H1V41ZM1 17V16H0V17H1ZM9 17V18H10V17H9ZM9 9V8H8V9H9ZM17 9V10H18V9H17ZM17 1V0H16V1H17ZM49 1H50V0H49V1ZM49 9H48V10H49V9ZM57 9H58V8H57V9ZM57 17V18H58V17H57ZM41 17H40V18H41V17ZM41 9H42V8H41V9ZM25 9V8H24V9H25ZM25 17V18H26V17H25ZM17 17V16H16V17H17ZM17 41H16V42H17V41ZM25 41H26V40H25V41ZM25 49H24V50H25V49ZM41 49V50H42V49H41ZM41 41V40H40V41H41ZM57 41H58V40H57V41ZM57 49V50H58V49H57ZM49 49V48H48V49H49ZM49 57V58H50V57H49ZM18 57V49H16V57H18ZM17 48H9V50H17V48ZM10 49V41H8V49H10ZM9 40H1V42H9V40ZM2 41V17H0V41H2ZM1 18H9V16H1V18ZM10 17V9H8V17H10ZM9 10H17V8H9V10ZM18 9V1H16V9H18ZM17 2H49V0H17V2ZM48 1V9H50V1H48ZM49 10H57V8H49V10ZM56 9V17H58V9H56ZM57 16H41V18H57V16ZM42 17V9H40V17H42ZM41 8H25V10H41V8ZM24 9V17H26V9H24ZM25 16H17V18H25V16ZM16 17V41H18V17H16ZM17 42H25V40H17V42ZM24 41V49H26V41H24ZM25 50H41V48H25V50ZM42 49V41H40V49H42ZM41 42H57V40H41V42ZM56 41V49H58V41H56ZM57 48H49V50H57V48ZM48 49V57H50V49H48ZM49 56H17V58H49V56ZM73 57H72V58H73V57ZM73 49V48H72V49H73ZM89 49V50H90V49H89ZM89 9H90V8H89V9ZM81 9H80V10H81V9ZM81 1V0H80V1H81ZM105 1H106V0H105V1ZM105 49H104V50H105V49ZM121 49H122V48H121V49ZM121 57V58H122V57H121ZM74 57V49H72V57H74ZM73 50H89V48H73V50ZM90 49V9H88V49H90ZM89 8H81V10H89V8ZM82 9V1H80V9H82ZM81 2H105V0H81V2ZM104 1V49H106V1H104ZM105 50H121V48H105V50ZM120 49V57H122V49H120ZM121 56H73V58H121V56ZM137 57H136V58H137V57ZM137 49H138V48H137V49ZM129 49H128V50H129V49ZM129 25V24H128V25H129ZM137 25V26H138V25H137ZM137 17V16H136V17H137ZM177 17H178V16H177V17ZM177 25H176V26H177V25ZM185 25H186V24H185V25ZM185 49V50H186V49H185ZM177 49V48H176V49H177ZM177 57V58H178V57H177ZM145 49H144V50H145V49ZM169 49V50H170V49H169ZM169 25H170V24H169V25ZM145 25V24H144V25H145ZM138 57V49H136V57H138ZM137 48H129V50H137V48ZM130 49V25H128V49H130ZM129 26H137V24H129V26ZM138 25V17H136V25H138ZM137 18H177V16H137V18ZM176 17V25H178V17H176ZM177 26H185V24H177V26ZM184 25V49H186V25H184ZM185 48H177V50H185V48ZM176 49V57H178V49H176ZM177 56H137V58H177V56ZM145 50H169V48H145V50ZM170 49V25H168V49H170ZM169 24H145V26H169V24ZM144 25V49H146V25H144ZM201 57H200V58H201V57ZM201 49H202V48H201V49ZM193 49H192V50H193V49ZM193 17V16H192V17H193ZM209 17H210V16H209V17ZM209 49H208V50H209V49ZM233 49V50H234V49H233ZM233 17V16H232V17H233ZM249 17H250V16H249V17ZM249 57V58H250V57H249ZM202 57V49H200V57H202ZM201 48H193V50H201V48ZM194 49V17H192V49H194ZM193 18H209V16H193V18ZM208 17V49H210V17H208ZM209 50H233V48H209V50ZM234 49V17H232V49H234ZM233 18H249V16H233V18ZM248 17V57H250V17H248ZM249 56H201V58H249V56ZM265 57H264V58H265V57ZM265 49H266V48H265V49ZM257 49H256V50H257V49ZM257 25V24H256V25H257ZM265 25V26H266V25H265ZM265 17V16H264V17H265ZM297 17V18H298V17H297ZM297 1V0H296V1H297ZM313 1H314V0H313V1ZM313 57V58H314V57H313ZM273 49H272V50H273V49ZM297 49V50H298V49H297ZM297 25H298V24H297V25ZM273 25V24H272V25H273ZM266 57V49H264V57H266ZM265 48H257V50H265V48ZM258 49V25H256V49H258ZM257 26H265V24H257V26ZM266 25V17H264V25H266ZM265 18H297V16H265V18ZM298 17V1H296V17H298ZM297 2H313V0H297V2ZM312 1V57H314V1H312ZM313 56H265V58H313V56ZM273 50H297V48H273V50ZM298 49V25H296V49H298ZM297 24H273V26H297V24ZM272 25V49H274V25H272ZM401 57H400V58H401V57ZM401 49H402V48H401V49ZM393 49H392V50H393V49ZM393 41H394V40H393V41ZM385 41H384V42H385V41ZM385 17V16H384V17H385ZM393 17V18H394V17H393ZM393 9V8H392V9H393ZM401 9V10H402V9H401ZM401 1V0H400V1H401ZM441 1H442V0H441V1ZM441 9V10H442V9H441ZM409 9V8H408V9H409ZM409 17V18H410V17H409ZM401 17V16H400V17H401ZM401 41H400V42H401V41ZM409 41H410V40H409V41ZM409 49H408V50H409V49ZM425 49V50H426V49H425ZM425 33H426V32H425V33ZM417 33H416V34H417V33ZM417 25V24H416V25H417ZM441 25H442V24H441V25ZM441 57V58H442V57H441ZM402 57V49H400V57H402ZM401 48H393V50H401V48ZM394 49V41H392V49H394ZM393 40H385V42H393V40ZM386 41V17H384V41H386ZM385 18H393V16H385V18ZM394 17V9H392V17H394ZM393 10H401V8H393V10ZM402 9V1H400V9H402ZM401 2H441V0H401V2ZM440 1V9H442V1H440ZM441 8H409V10H441V8ZM408 9V17H410V9H408ZM409 16H401V18H409V16ZM400 17V41H402V17H400ZM401 42H409V40H401V42ZM408 41V49H410V41H408ZM409 50H425V48H409V50ZM426 49V33H424V49H426ZM425 32H417V34H425V32ZM418 33V25H416V33H418ZM417 26H441V24H417V26ZM440 25V57H442V25H440ZM441 56H401V58H441V56ZM513 57H512V58H513V57ZM513 1V0H512V1H513ZM569 1H570V0H569V1ZM569 9V10H570V9H569ZM529 9V8H528V9H529ZM529 25H528V26H529V25ZM561 25H562V24H561V25ZM561 33V34H562V33H561ZM529 33V32H528V33H529ZM529 57V58H530V57H529ZM514 57V1H512V57H514ZM513 2H569V0H513V2ZM568 1V9H570V1H568ZM569 8H529V10H569V8ZM528 9V25H530V9H528ZM529 26H561V24H529V26ZM560 25V33H562V25H560ZM561 32H529V34H561V32ZM528 33V57H530V33H528ZM529 56H513V58H529V56ZM601 9H600V10H601V9ZM601 1V0H600V1H601ZM617 1H618V0H617V1ZM617 9V10H618V9H617ZM585 57H584V58H585V57ZM585 49V48H584V49H585ZM601 49V50H602V49H601ZM601 25H602V24H601V25ZM593 25H592V26H593V25ZM593 17V16H592V17H593ZM617 17H618V16H617V17ZM617 49H616V50H617V49ZM633 49H634V48H633V49ZM633 57V58H634V57H633ZM602 9V1H600V9H602ZM601 2H617V0H601V2ZM616 1V9H618V1H616ZM617 8H601V10H617V8ZM586 57V49H584V57H586ZM585 50H601V48H585V50ZM602 49V25H600V49H602ZM601 24H593V26H601V24ZM594 25V17H592V25H594ZM593 18H617V16H593V18ZM616 17V49H618V17H616ZM617 50H633V48H617V50ZM632 49V57H634V49H632ZM633 56H585V58H633V56ZM665 57H664V58H665V57ZM665 49H666V48H665V49ZM657 49H656V50H657V49ZM657 41H658V40H657V41ZM649 41H648V42H649V41ZM649 17V16H648V17H649ZM665 17H666V16H665V17ZM665 41H664V42H665V41ZM681 41V42H682V41H681ZM681 17V16H680V17H681ZM697 17H698V16H697V17ZM697 41V42H698V41H697ZM689 41V40H688V41H689ZM689 49V50H690V49H689ZM681 49V48H680V49H681ZM681 57V58H682V57H681ZM666 57V49H664V57H666ZM665 48H657V50H665V48ZM658 49V41H656V49H658ZM657 40H649V42H657V40ZM650 41V17H648V41H650ZM649 18H665V16H649V18ZM664 17V41H666V17H664ZM665 42H681V40H665V42ZM682 41V17H680V41H682ZM681 18H697V16H681V18ZM696 17V41H698V17H696ZM697 40H689V42H697V40ZM688 41V49H690V41H688ZM689 48H681V50H689V48ZM680 49V57H682V49H680ZM681 56H665V58H681V56ZM713 57H712V58H713V57ZM713 49H714V48H713V49ZM705 49H704V50H705V49ZM705 25V24H704V25H705ZM713 25V26H714V25H713ZM713 17V16H712V17H713ZM753 17H754V16H753V17ZM753 25H752V26H753V25ZM761 25H762V24H761V25ZM761 41V42H762V41H761ZM721 41V40H720V41H721ZM721 49H720V50H721V49ZM753 49H754V48H753V49ZM753 57V58H754V57H753ZM721 33H720V34H721V33ZM745 33V34H746V33H745ZM745 25H746V24H745V25ZM721 25V24H720V25H721ZM714 57V49H712V57H714ZM713 48H705V50H713V48ZM706 49V25H704V49H706ZM705 26H713V24H705V26ZM714 25V17H712V25H714ZM713 18H753V16H713V18ZM752 17V25H754V17H752ZM753 26H761V24H753V26ZM760 25V41H762V25H760ZM761 40H721V42H761V40ZM720 41V49H722V41H720ZM721 50H753V48H721V50ZM752 49V57H754V49H752ZM753 56H713V58H753V56ZM721 34H745V32H721V34ZM746 33V25H744V33H746ZM745 24H721V26H745V24ZM720 25V33H722V25H720Z" fill="black" mask="url(#path-3-outside-1_11_40)"/>
</svg>
