<svg width="40" height="40" viewBox="0 0 40 40" fill="none" xmlns="http://www.w3.org/2000/svg">
<g clip-path="url(#clip0_129_94)">
<path d="M36.8421 0H3.15789C2.32037 0 1.51715 0.332706 0.924926 0.924926C0.332706 1.51715 0 2.32037 0 3.15789V36.8421C0 37.6796 0.332706 38.4829 0.924926 39.0751C1.51715 39.6673 2.32037 40 3.15789 40H36.8421C37.6796 40 38.4829 39.6673 39.0751 39.0751C39.6673 38.4829 40 37.6796 40 36.8421V3.15789C40 2.32037 39.6673 1.51715 39.0751 0.924926C38.4829 0.332706 37.6796 0 36.8421 0Z" fill="#4C75A3"/>
<path fill-rule="evenodd" clip-rule="evenodd" d="M12.3684 13.6842L12.2132 13.5289C12.2713 13.5739 12.3235 13.6261 12.3684 13.6842Z" fill="url(#paint0_linear_129_94)"/>
<path fill-rule="evenodd" clip-rule="evenodd" d="M21.9553 13.1842L21.8105 13.0395C21.8657 13.0802 21.9145 13.129 21.9553 13.1842Z" fill="url(#paint1_linear_129_94)"/>
<path d="M17.1684 15.1526L15.7079 13.6842C16.1499 13.723 16.5603 13.9291 16.8553 14.2605C17.024 14.5312 17.1309 14.8358 17.1684 15.1526Z" fill="url(#paint2_linear_129_94)"/>
<path d="M13.9211 16.8421C13.3966 15.9082 12.9334 14.9413 12.5342 13.9474C12.4901 13.8531 12.4344 13.7647 12.3684 13.6842L17.1974 18.5079C17.1237 19.1184 16.9763 19.6421 16.7053 19.7921C16.1816 20.0763 15.4632 19.4947 13.9211 16.8421Z" fill="url(#paint3_linear_129_94)"/>
<path d="M21.8105 13.0395C21.8105 13.0395 21.8105 13.0395 21.7921 13.0237L21.8105 13.0395Z" fill="url(#paint4_linear_129_94)"/>
<path d="M21.9553 13.1842L25.4605 16.6895L25.3579 16.8632C23.6263 19.8 22.9368 19.9553 22.6526 19.7737C21.9947 19.35 22.1605 18.0658 22.1605 17.1421C22.1605 14.9711 22.4158 13.7632 21.9553 13.1842Z" fill="url(#paint5_linear_129_94)"/>
<path d="M40 20.8184V36.8421C40 37.6796 39.6673 38.4829 39.0751 39.0751C38.4829 39.6673 37.6796 40 36.8421 40H28.9289L13.6158 24.6895C16.5395 27.4974 19.7237 27.3211 19.7237 27.3211H21.2658C21.5263 27.291 21.7719 27.1838 21.9711 27.0132C22.1164 26.8102 22.1913 26.5653 22.1842 26.3158C22.1842 26.3158 22.1526 24.2447 23.1158 23.9474C24.0789 23.65 25.2789 25.9474 26.5711 26.8421C27.5447 27.5132 28.2868 27.3684 28.2868 27.3684L31.7368 27.3211C31.7368 27.3211 33.5421 27.2079 32.6868 25.7895C32.6158 25.6737 32.1868 24.7368 30.1211 22.8211C27.9579 20.8132 28.2474 21.1395 30.8526 17.6658C32.4316 15.5605 33.0737 14.2605 32.8763 13.7184L40 20.8184Z" fill="url(#paint6_linear_129_94)"/>
<path fill-rule="evenodd" clip-rule="evenodd" d="M19.7368 27.3079H21.2789C21.5395 27.2778 21.7851 27.1706 21.9842 27C22.1222 26.7991 22.1922 26.5594 22.1842 26.3158C22.1842 26.3158 22.1526 24.2447 23.1158 23.9474C24.0789 23.65 25.2789 25.9474 26.5711 26.8421C27.5447 27.5132 28.2868 27.3684 28.2868 27.3684L31.7368 27.3211C31.7368 27.3211 33.5421 27.2079 32.6868 25.7895C32.6158 25.6737 32.1868 24.7368 30.1211 22.8211C27.9579 20.8132 28.2474 21.1395 30.8526 17.6658C32.4316 15.5605 33.0737 14.2605 32.8763 13.7184C32.679 13.1763 31.5211 13.3289 31.5211 13.3289L27.6368 13.3553C27.4644 13.3345 27.2897 13.3647 27.1342 13.4421C26.9872 13.551 26.8696 13.6948 26.7921 13.8605C26.3897 14.9034 25.9103 15.915 25.3579 16.8868C23.6263 19.8237 22.9368 19.979 22.6526 19.7974C21.9947 19.3737 22.1605 18.0895 22.1605 17.1658C22.1605 14.3184 22.5921 13.1342 21.3184 12.8263C20.726 12.6773 20.1158 12.6118 19.5053 12.6316C18.1211 12.6316 16.9474 12.6316 16.2842 12.9632C15.8421 13.1789 15.4947 13.6605 15.7079 13.6895C16.1499 13.7282 16.5603 13.9344 16.8553 14.2658C17.2526 14.8053 17.2395 16.0237 17.2395 16.0237C17.2395 16.0237 17.4658 19.3737 16.7132 19.7895C16.1868 20.0737 15.4711 19.4921 13.9289 16.8263C13.4025 15.8977 12.9366 14.9361 12.5342 13.9474C12.4627 13.7802 12.3527 13.6323 12.2132 13.5158C12.1514 13.4707 12.0853 13.4319 12.0158 13.4C11.8168 13.3132 11.6012 13.2709 11.3842 13.2763L7.92632 13.3C7.92632 13.3 7.37105 13.3 7.16842 13.5632C6.96579 13.8263 7.15263 14.2211 7.15263 14.2211C7.15263 14.2211 10.0474 20.9816 13.3158 24.3895C16.3158 27.5105 19.7368 27.3079 19.7368 27.3079Z" fill="white"/>
</g>
<defs>
<linearGradient id="paint0_linear_129_94" x1="0.677966" y1="-2.0339" x2="40.678" y2="37.9661" gradientUnits="userSpaceOnUse">
<stop stop-color="#0D47A1"/>
<stop offset="1" stop-color="#0D47A1" stop-opacity="0"/>
</linearGradient>
<linearGradient id="paint1_linear_129_94" x1="0.727272" y1="-0.727272" x2="40.7273" y2="39.2727" gradientUnits="userSpaceOnUse">
<stop stop-color="#0D47A1"/>
<stop offset="1" stop-color="#0D47A1" stop-opacity="0"/>
</linearGradient>
<linearGradient id="paint2_linear_129_94" x1="4.03604" y1="-3.79928" x2="43.8204" y2="36.2001" gradientUnits="userSpaceOnUse">
<stop stop-color="#0D47A1"/>
<stop offset="1" stop-color="#0D47A1" stop-opacity="0"/>
</linearGradient>
<linearGradient id="paint3_linear_129_94" x1="-4.99183" y1="3.87067" x2="27.9422" y2="45.9732" gradientUnits="userSpaceOnUse">
<stop stop-color="#0D47A1"/>
<stop offset="1" stop-color="#0D47A1" stop-opacity="0"/>
</linearGradient>
<linearGradient id="paint4_linear_129_94" x1="0" y1="0" x2="45.0636" y2="33.1079" gradientUnits="userSpaceOnUse">
<stop stop-color="#0D47A1"/>
<stop offset="1" stop-color="#0D47A1" stop-opacity="0"/>
</linearGradient>
<linearGradient id="paint5_linear_129_94" x1="-16.8769" y1="8.90815" x2="2.55729" y2="45.727" gradientUnits="userSpaceOnUse">
<stop stop-color="#0D47A1"/>
<stop offset="1" stop-color="#0D47A1" stop-opacity="0"/>
</linearGradient>
<linearGradient id="paint6_linear_129_94" x1="11.4662" y1="5.18674" x2="41.7894" y2="35.388" gradientUnits="userSpaceOnUse">
<stop stop-color="#0D47A1"/>
<stop offset="1" stop-color="#0D47A1" stop-opacity="0"/>
</linearGradient>
<clipPath id="clip0_129_94">
<rect width="40" height="40" fill="white"/>
</clipPath>
</defs>
</svg>
