<svg width="40" height="40" viewBox="0 0 40 40" fill="none" xmlns="http://www.w3.org/2000/svg">
<g clip-path="url(#clip0_129_131)">
<path d="M39.9976 19.968C39.9576 20.1758 40.4132 27.5187 34.5353 33.736C26.6373 42.0893 13.3548 42.085 5.4633 33.7351C-1.81362 26.0361 -1.82857 13.9817 5.4633 6.26685C10.4837 0.954657 17.8006 -1.06286 24.5862 0.531073C27.107 1.12281 28.3826 3.94446 27.1839 6.23908C26.3404 7.85407 24.5084 8.67896 22.7387 8.26667C18.6518 7.31421 14.256 8.53888 11.243 11.7274C6.85185 16.37 6.85642 23.6365 11.243 28.2743C15.9974 33.3076 24.0039 33.3051 28.7555 28.2743C29.9854 26.9742 30.9284 25.4001 31.4835 23.6521H24.8319C22.9334 23.6521 21.3938 22.1122 21.3938 20.2137C21.3938 18.3152 22.9325 16.7753 24.8319 16.7753H36.7765C38.5437 16.7753 39.9952 18.2001 39.9976 19.968Z" fill="#FFDA44"/>
<path d="M39.9976 19.968L39.9976 20.001C39.9976 25.1243 38.0573 30.0107 34.5353 33.736C30.7789 37.7088 25.4584 40.1072 19.5911 39.9949V32.0414C23.2062 32.1567 26.4695 30.6949 28.7555 28.2743C29.9854 26.9742 30.9284 25.4001 31.4835 23.6521H24.8319C22.9334 23.6521 21.3938 22.1122 21.3938 20.2137C21.3938 18.3152 22.9325 16.7753 24.8319 16.7753H36.7765C38.5437 16.7753 39.9952 18.2001 39.9976 19.968Z" fill="#0FA9DD"/>
<path d="M27.1839 6.23908C26.3413 7.85315 24.5121 8.67896 22.7387 8.26667C18.6649 7.3194 14.2679 8.52607 11.243 11.7274L5.4633 6.26685C10.4947 0.94306 17.8141 -1.0592 24.5862 0.531073C27.107 1.12281 28.3826 3.94446 27.1839 6.23908Z" fill="#FF6426"/>
<path d="M34.5353 33.736C26.6355 42.0911 13.3551 42.0853 5.4633 33.7351L11.243 28.2743C15.9989 33.3079 24.003 33.306 28.7555 28.2743L34.5353 33.736Z" fill="#6FBF6B"/>
</g>
<defs>
<clipPath id="clip0_129_131">
<rect width="40" height="40" fill="white"/>
</clipPath>
</defs>
</svg>
