<svg width="40" height="40" viewBox="0 0 40 40" fill="none" xmlns="http://www.w3.org/2000/svg">
<g clip-path="url(#clip0_129_108)">
<path d="M36.8421 0H3.15789C1.41384 0 0 1.41384 0 3.15789V36.8421C0 38.5862 1.41384 40 3.15789 40H36.8421C38.5862 40 40 38.5862 40 36.8421V3.15789C40 1.41384 38.5862 0 36.8421 0Z" fill="#FF9800"/>
<path d="M20 17.4316C21.4621 17.4316 22.6474 16.2463 22.6474 14.7842C22.6474 13.3221 21.4621 12.1368 20 12.1368C18.5379 12.1368 17.3526 13.3221 17.3526 14.7842C17.3526 16.2463 18.5379 17.4316 20 17.4316Z" fill="url(#paint0_linear_129_108)"/>
<path d="M40 27.3368L40 36.8421C40 37.6796 39.6673 38.4829 39.0751 39.0751C38.4829 39.6673 37.6796 40 36.8421 40H24.0816L14.1316 30.05C14.4707 30.3646 14.9187 30.5353 15.3812 30.526C15.8436 30.5166 16.2844 30.3281 16.6105 30L20 26.6105L23.3895 30C23.727 30.329 24.1805 30.5117 24.6518 30.5087C25.1231 30.5057 25.5742 30.3171 25.9075 29.9838C26.2408 29.6506 26.4293 29.1994 26.4324 28.7281C26.4354 28.2568 26.2526 27.8033 25.9237 27.4658L23.3658 24.9079C24.6834 24.5555 25.9506 24.0364 27.1368 23.3632C27.3442 23.2474 27.5267 23.0919 27.674 22.9056C27.8212 22.7193 27.9304 22.5058 27.9951 22.2773C28.0599 22.0488 28.079 21.8098 28.0514 21.574C28.0238 21.3381 27.95 21.11 27.8342 20.9026C27.7184 20.6953 27.563 20.5128 27.3767 20.3655C27.1903 20.2182 26.9769 20.1091 26.7484 20.0444C26.5199 19.9796 26.2809 19.9605 26.045 19.9881C25.8092 20.0157 25.581 20.0895 25.3737 20.2053C23.746 21.1741 21.8939 21.702 20 21.7368L16.6868 18.9474C17.7009 19.7614 18.9784 20.1751 20.2771 20.11C21.5759 20.045 22.8056 19.5056 23.7332 18.5943C24.6607 17.6829 25.2217 16.4629 25.3097 15.1655C25.3977 13.8681 25.0066 12.5835 24.2105 11.5553L40 27.3368Z" fill="url(#paint1_linear_129_108)"/>
<path d="M16.6342 24.9079L15.4868 26.0526L12.6711 23.2368C12.7311 23.2826 12.7945 23.3239 12.8605 23.3605C14.0474 24.0348 15.3156 24.5548 16.6342 24.9079Z" fill="url(#paint2_linear_129_108)"/>
<path d="M20 9.47368C18.9497 9.47368 17.9229 9.78514 17.0496 10.3687C16.1763 10.9522 15.4957 11.7816 15.0937 12.752C14.6918 13.7223 14.5866 14.7901 14.7915 15.8202C14.9964 16.8504 15.5022 17.7966 16.2449 18.5393C16.9876 19.282 17.9338 19.7878 18.964 19.9927C19.9941 20.1976 21.0619 20.0924 22.0322 19.6905C23.0026 19.2886 23.832 18.6079 24.4155 17.7346C24.9991 16.8613 25.3105 15.8345 25.3105 14.7842C25.3109 14.0867 25.1737 13.396 24.907 12.7516C24.6402 12.1071 24.2491 11.5215 23.7559 11.0283C23.2627 10.5351 22.6771 10.144 22.0327 9.87722C21.3882 9.61046 20.6975 9.47334 20 9.47368ZM20 17.4316C19.4764 17.4316 18.9646 17.2763 18.5292 16.9854C18.0938 16.6945 17.7545 16.2811 17.5541 15.7973C17.3538 15.3136 17.3013 14.7813 17.4035 14.2677C17.5056 13.7542 17.7578 13.2825 18.128 12.9122C18.4983 12.542 18.97 12.2899 19.4835 12.1877C19.9971 12.0856 20.5294 12.138 21.0131 12.3384C21.4968 12.5387 21.9103 12.8781 22.2012 13.3134C22.4921 13.7488 22.6474 14.2606 22.6474 14.7842C22.6477 15.132 22.5795 15.4764 22.4466 15.7977C22.3136 16.1191 22.1186 16.4111 21.8727 16.657C21.6268 16.9029 21.3349 17.0978 21.0135 17.2308C20.6922 17.3637 20.3478 17.4319 20 17.4316Z" fill="white"/>
<path d="M27.8263 20.9079C27.7107 20.7014 27.5555 20.5198 27.3696 20.3734C27.1837 20.227 26.9708 20.1186 26.743 20.0546C26.5152 19.9906 26.277 19.9721 26.042 20.0002C25.8071 20.0283 25.58 20.1025 25.3737 20.2184C21.7579 22.2447 18.2421 22.2447 14.6263 20.2184C14.419 20.1027 14.1908 20.0289 13.955 20.0012C13.7191 19.9736 13.4801 19.9928 13.2516 20.0575C13.0231 20.1223 12.8097 20.2314 12.6233 20.3787C12.437 20.5259 12.2816 20.7084 12.1658 20.9158C12.05 21.1231 11.9762 21.3513 11.9486 21.5871C11.921 21.823 11.9401 22.062 12.0049 22.2905C12.1357 22.7519 12.4444 23.1425 12.8632 23.3763C14.0494 24.0495 15.3166 24.5686 16.6342 24.9211L14.0763 27.4789C13.7403 27.815 13.5515 28.2708 13.5515 28.7461C13.5515 29.2213 13.7403 29.6771 14.0763 30.0132C14.4124 30.3492 14.8682 30.5379 15.3434 30.5379C15.8187 30.5379 16.2745 30.3492 16.6105 30.0132L20 26.6105L23.3895 30C23.7255 30.336 24.1813 30.5248 24.6566 30.5248C25.1318 30.5248 25.5876 30.336 25.9237 30C26.2597 29.6639 26.4485 29.2081 26.4485 28.7329C26.4485 28.2577 26.2597 27.8019 25.9237 27.4658L23.3658 24.9079C24.6834 24.5555 25.9506 24.0364 27.1368 23.3632C27.3436 23.2475 27.5256 23.0922 27.6722 22.9061C27.8189 22.72 27.9273 22.5068 27.9914 22.2787C28.0555 22.0506 28.0738 21.8121 28.0455 21.5768C28.0172 21.3416 27.9427 21.1143 27.8263 20.9079Z" fill="white"/>
</g>
<defs>
<linearGradient id="paint0_linear_129_108" x1="5.86481" y1="5.86481" x2="34.1352" y2="34.1551" gradientUnits="userSpaceOnUse">
<stop stop-color="#E65100"/>
<stop offset="1" stop-color="#E65100" stop-opacity="0"/>
</linearGradient>
<linearGradient id="paint1_linear_129_108" x1="4.43133" y1="9.93987" x2="34.1977" y2="42.6749" gradientUnits="userSpaceOnUse">
<stop stop-color="#E65100"/>
<stop offset="1" stop-color="#E65100" stop-opacity="0"/>
</linearGradient>
<linearGradient id="paint2_linear_129_108" x1="5.79017" y1="-8.11215" x2="43.5622" y2="18.7246" gradientUnits="userSpaceOnUse">
<stop stop-color="#E65100"/>
<stop offset="1" stop-color="#E65100" stop-opacity="0"/>
</linearGradient>
<clipPath id="clip0_129_108">
<rect width="40" height="40" fill="white"/>
</clipPath>
</defs>
</svg>
