<svg width="170" height="147" viewBox="0 0 170 147" fill="none" xmlns="http://www.w3.org/2000/svg">
<path d="M126.759 0C103.036 0 83.6944 19.2924 83.5173 43.1062L56.6078 81.9595C49.0834 81.2878 42.6217 82.8547 36.868 86.3462L0 71.3507V112.353L21.8196 121.171C23.4338 128.443 27.4334 134.941 33.1607 139.594C38.8879 144.248 46.0018 146.78 53.3323 146.775C70.0184 146.775 83.8715 133.884 85.3763 117.411L126.847 86.928C150.614 86.928 170 67.5014 170 43.4196C169.956 19.5164 150.614 0 126.759 0ZM53.2881 138.181C48.9929 138.194 44.7751 137.018 41.0872 134.778C37.3993 132.539 34.3805 129.32 32.3546 125.468C36.2051 126.945 40.144 128.602 43.995 130.124C46.2866 131.076 48.7406 131.56 51.2162 131.546C53.6919 131.533 56.1406 131.023 58.4223 130.046C60.704 129.069 62.7738 127.644 64.5131 125.852C66.2525 124.061 67.6273 121.937 68.5587 119.605C69.4779 117.286 69.9354 114.806 69.9048 112.306C69.8741 109.807 69.3559 107.338 68.3802 105.044C67.4045 102.75 65.9907 100.675 64.2207 98.9409C62.4508 97.2065 60.3599 95.8468 58.0694 94.9405L48.1992 90.912C49.8832 90.5198 51.6057 90.3246 53.3333 90.3302C56.4427 90.301 59.527 90.899 62.4077 92.0897C65.2885 93.2804 67.9085 95.0401 70.1164 97.2671C72.3243 99.4941 74.0762 102.144 75.2708 105.064C76.4653 107.984 77.0789 111.116 77.076 114.278C77.0731 117.441 76.4537 120.571 75.2538 123.489C74.0538 126.407 72.297 129.053 70.085 131.276C67.873 133.499 65.2497 135.254 62.3668 136.439C59.4838 137.624 56.3985 138.216 53.2891 138.181H53.2881ZM126.802 72.6042C110.781 72.6042 97.7683 59.6232 97.7683 43.4625C97.7683 27.3947 110.736 14.3208 126.802 14.3208C142.692 14.3208 155.704 27.3917 155.704 43.4625C155.75 59.6232 142.692 72.6491 126.802 72.6042Z" fill="url(#paint0_linear_89_10)"/>
<path d="M126.737 60.965C136.342 60.965 144.129 53.1295 144.129 43.464C144.129 33.7985 136.342 25.963 126.737 25.963C117.131 25.963 109.344 33.7985 109.344 43.464C109.344 53.1295 117.131 60.965 126.737 60.965Z" fill="url(#paint1_linear_89_10)"/>
<defs>
<linearGradient id="paint0_linear_89_10" x1="137.498" y1="31.9705" x2="49.3147" y2="111.573" gradientUnits="userSpaceOnUse">
<stop offset="0.04" stop-color="#0151B2"/>
<stop offset="0.53" stop-color="#01C5E2"/>
<stop offset="1" stop-color="#0151B2"/>
</linearGradient>
<linearGradient id="paint1_linear_89_10" x1="137.498" y1="31.9705" x2="49.3147" y2="111.573" gradientUnits="userSpaceOnUse">
<stop offset="0.04" stop-color="#0151B2"/>
<stop offset="0.53" stop-color="#01C5E2"/>
<stop offset="1" stop-color="#0151B2"/>
</linearGradient>
</defs>
</svg>
