<svg width="40" height="40" viewBox="0 0 40 40" fill="none" xmlns="http://www.w3.org/2000/svg">
<g clip-path="url(#clip0_129_120)">
<path d="M32.6666 39.3334H7.33336C3.66672 39.3334 0.666719 36.3334 0.666719 32.6667V7.33336C0.666719 3.66672 3.66672 0.666719 7.33336 0.666719H32.6667C36.3334 0.666719 39.3334 3.66672 39.3334 7.33336V32.6667C39.3334 36.3334 36.3334 39.3334 32.6666 39.3334Z" fill="#2B5DDA"/>
<path d="M32.6666 40H7.33336C3.26664 40 0 36.7334 0 32.6666V7.33336C0 3.26664 3.26664 0 7.33336 0H32.6667C36.7334 0 40 3.26664 40 7.33336V32.6667C40 36.7334 36.7334 40 32.6666 40ZM7.33336 1.33336C4 1.33336 1.33336 4 1.33336 7.33336V32.6667C1.33336 36.0001 4 38.6667 7.33336 38.6667H32.6667C36.0001 38.6667 38.6667 36.0001 38.6667 32.6667V7.33336C38.6667 4 36.0001 1.33336 32.6667 1.33336H7.33336Z" fill="#2B5DDA"/>
<path d="M28.6666 22.6666C23.8666 22.6666 20 18.8 20 14C20 9.2 23.8666 5.33336 28.6666 5.33336C33.4666 5.33336 37.3334 9.2 37.3334 14C37.3334 18.8 33.4666 22.6666 28.6666 22.6666Z" fill="white"/>
<path d="M28.6666 19.3334C25.7333 19.3334 23.3333 16.9334 23.3333 14C23.3333 11.0666 25.7333 8.66664 28.6666 8.66664C31.6 8.66664 34 11.0666 34 14C34 16.9334 31.6 19.3334 28.6666 19.3334ZM28.6666 10C26.4666 10 24.6666 11.8 24.6666 14C24.6666 16.2 26.4666 18 28.6666 18C30.8666 18 32.6666 16.2 32.6666 14C32.6666 11.8 30.8666 10 28.6666 10Z" fill="#2B5DDA"/>
<path d="M14.6666 32.6666C12.7333 32.6666 11.0666 31.4666 10.3333 29.6666L9.79992 28.2666L12.3999 29.2666C13.5333 29.6666 14.7999 29.2 15.1999 28.1333C15.5999 27.0666 14.9333 25.8666 13.7999 25.4666L11.3333 24.4L12.6666 23.7334C13.2666 23.4667 13.9333 23.2667 14.6666 23.2667C17.2666 23.2667 19.3333 25.3334 19.3333 27.9334C19.3333 30.5334 17.2666 32.6666 14.6666 32.6666ZM12.7334 30.6666C13.2667 31.0666 13.9334 31.3333 14.6667 31.3333C16.5334 31.3333 18.0001 29.8666 18.0001 27.9999C18.0001 26.3333 16.8001 24.9333 15.2001 24.7333C16.4001 25.6666 16.9334 27.1999 16.4667 28.5999C15.9334 30.0666 14.3334 30.8666 12.7334 30.6666Z" fill="#2B5DDA"/>
<path d="M15.2 19.3334C19.5334 19.6 23.0667 23.0667 23.3334 27.4667L30.5334 22.4001C30 22.5334 29.4 22.6001 28.8 22.6001C24 22.6001 20.1334 18.7334 20.1334 13.9334C20.1334 13.2001 20.2667 12.4668 20.4 11.8001L15.2 19.3334Z" fill="white"/>
<path d="M14.6667 20.6666C13.0667 20.6666 11.7333 21.0666 10.5333 21.9333L14.4667 23.5999C16.6 24.3999 17.8 26.7333 17 28.7999C16.4 30.3999 14.9334 31.3999 13.1334 31.3999C12.6 31.3999 12.1334 31.3333 11.6 31.1333L7.46666 29.4666C8.3333 32.7333 11.2 35.3333 14.6667 35.3333C18.7333 35.3333 22 32.0666 22 27.9999C22 23.9332 18.7334 20.6666 14.6667 20.6666Z" fill="white"/>
<path d="M2.66666 20L14 24.8C15.5334 25.4 16.3334 26.9334 15.8 28.3334C15.2667 29.7334 13.6667 30.4 12.1334 29.8667L2.66673 26.0667L2.66666 20Z" fill="white"/>
</g>
<defs>
<clipPath id="clip0_129_120">
<rect width="40" height="40" fill="white"/>
</clipPath>
</defs>
</svg>
