<svg width="32" height="32" viewBox="0 0 32 32" fill="none" xmlns="http://www.w3.org/2000/svg">
<path d="M29.0146 0.858398L31.1406 2.96777L31.2832 3.10938L31.1416 3.25098L18.3691 16L31.1416 28.749L31.2832 28.8906L31.1406 29.0322L29.0146 31.1416L28.874 31.2822L28.7324 31.1416L16.0391 18.4688L3.2666 31.1416L3.12598 31.2822L2.98535 31.1416L0.859375 29.0322L0.716797 28.8906L0.858398 28.749L13.6299 16L0.858398 3.25098L0.716797 3.10938L0.859375 2.96777L2.98535 0.858398L3.12598 0.717773L3.26758 0.858398L16.0381 13.6064L28.7324 0.858398L28.873 0.717773L29.0146 0.858398Z" fill="#D9D9D9" stroke="#D9D9D9" stroke-width="0.4"/>
</svg>
